<?xml version="1.0" encoding="utf-8"?>
<svg viewBox="0 0 640 320" xmlns="http://www.w3.org/2000/svg">
  <defs/>
  <g id="layer3" style="display: inline; opacity: 1;" transform="matrix(0.367775022983551, 0, 0, 0.367775022983551, -12.577634811401367, 423.2834777832031)">
    <title>logo</title>
    <path id="use3439-6" d="m 309.54892,-710.38827 122.19683,211.67512 -56.15706,0.5268 -32.6236,-56.8692 -32.85645,56.5653 -27.90237,-0.011 -14.29086,-24.6896 46.81047,-80.4901 -33.22946,-57.8257 z" style="opacity: 1; fill-rule: evenodd; stroke: none; stroke-width: 3; stroke-linecap: butt; stroke-linejoin: round; stroke-miterlimit: 4; stroke-dasharray: none; stroke-opacity: 1; paint-order: fill; fill: rgb(117, 144, 117);" transform="matrix(0.49999999999999994, 0.8660254037844387, -0.8660254037844387, 0.49999999999999994, -416.3341552621488, -710.462553050314)"/>
    <path id="use3445-0" d="m 309.54892,-710.38827 122.19683,211.67512 -56.15706,0.5268 -32.6236,-56.8692 -32.85645,56.5653 -27.90237,-0.011 -14.29086,-24.6896 46.81047,-80.4901 -33.22946,-57.8257 z" style="opacity: 1; fill-rule: evenodd; stroke: none; stroke-width: 3; stroke-linecap: butt; stroke-linejoin: round; stroke-miterlimit: 4; stroke-dasharray: none; stroke-opacity: 1; paint-order: fill; fill: rgb(117, 144, 117);" transform="matrix(0.49999999999999994, -0.8660254037844387, 0.8660254037844387, 0.49999999999999994, 823.4703815651761, -5.107729155672814)"/>
    <path id="use3449-5" d="m 309.54892,-710.38827 122.19683,211.67512 -56.15706,0.5268 -32.6236,-56.8692 -32.85645,56.5653 -27.90237,-0.011 -14.29086,-24.6896 46.81047,-80.4901 -33.22946,-57.8257 z" style="opacity: 1; fill-rule: evenodd; stroke: none; stroke-width: 3; stroke-linecap: butt; stroke-linejoin: round; stroke-miterlimit: 4; stroke-dasharray: none; stroke-opacity: 1; paint-order: fill; fill: rgb(117, 144, 117);" transform="matrix(-1, 0, 0, -1, 814.8373413085938, -1431.512939453125)"/>
    <path style="color: rgb(0, 0, 0); clip-rule: nonzero; display: inline; overflow: visible; opacity: 1; isolation: auto; mix-blend-mode: normal; color-interpolation: srgb; color-interpolation-filters: linearrgb; fill-rule: evenodd; stroke: none; stroke-width: 3; stroke-linecap: butt; stroke-linejoin: round; stroke-miterlimit: 4; stroke-dasharray: none; stroke-dashoffset: 0; stroke-opacity: 1; color-rendering: auto; image-rendering: auto; shape-rendering: auto; text-rendering: auto; paint-order: fill; fill: rgb(117, 144, 117);" d="m 309.54892,-710.38827 122.19683,211.67512 -56.15706,0.5268 -32.6236,-56.8692 -32.85645,56.5653 -27.90237,-0.011 -14.29086,-24.6896 46.81047,-80.4901 -33.22946,-57.8256 z" id="path4260-0"/>
    <path style="color: rgb(0, 0, 0); clip-rule: nonzero; display: inline; overflow: visible; opacity: 1; isolation: auto; mix-blend-mode: normal; color-interpolation: srgb; color-interpolation-filters: linearrgb; fill-rule: evenodd; stroke: none; stroke-width: 3; stroke-linecap: butt; stroke-linejoin: round; stroke-miterlimit: 4; stroke-dasharray: none; stroke-dashoffset: 0; stroke-opacity: 1; color-rendering: auto; image-rendering: auto; shape-rendering: auto; text-rendering: auto; paint-order: fill; fill: rgb(117, 144, 117);" d="m 309.54892,-710.38827 122.19683,211.67512 -56.15706,0.5268 -32.6236,-56.8692 -32.85645,56.5653 -27.90237,-0.011 -14.29086,-24.6896 46.81047,-80.4901 -33.22946,-57.8256 z" id="use4354-5" transform="matrix(-0.49999999999999994, 0.8660254037844387, -0.8660254037844387, -0.49999999999999994, -9.13779316103637, -1426.891406916489)"/>
    <path style="color: rgb(0, 0, 0); clip-rule: nonzero; display: inline; overflow: visible; opacity: 1; isolation: auto; mix-blend-mode: normal; color-interpolation: srgb; color-interpolation-filters: linearrgb; fill-rule: evenodd; stroke: none; stroke-width: 3; stroke-linecap: butt; stroke-linejoin: round; stroke-miterlimit: 4; stroke-dasharray: none; stroke-dashoffset: 0; stroke-opacity: 1; color-rendering: auto; image-rendering: auto; shape-rendering: auto; text-rendering: auto; paint-order: fill; fill: rgb(117, 144, 117);" d="m 309.54892,-710.38827 122.19683,211.67512 -56.15706,0.5268 -32.6236,-56.8692 -32.85645,56.5653 -27.90237,-0.011 -14.29086,-24.6896 46.81047,-80.4901 -33.22946,-57.8256 z" id="use4362-2" transform="matrix(-0.49999999999999994, -0.8660254037844387, 0.8660254037844387, -0.49999999999999994, 1230.8939065086165, -721.0829398974427)"/>
  </g>
  <path d="M 281.52 49.8 Q 281.52 51.82 280.92 53.47 Q 280.33 55.13 279.26 56.31 Q 278.18 57.49 276.67 58.14 Q 275.16 58.78 273.33 58.78 L 267.12 58.78 L 267.12 40.81 L 273.33 40.81 Q 275.16 40.81 276.67 41.46 Q 278.18 42.11 279.26 43.29 Q 280.33 44.46 280.92 46.12 Q 281.52 47.79 281.52 49.8 Z M 278.96 49.8 Q 278.96 48.15 278.57 46.86 Q 278.17 45.57 277.43 44.67 Q 276.69 43.77 275.65 43.29 Q 274.61 42.82 273.33 42.82 L 269.62 42.82 L 269.62 56.77 L 273.33 56.77 Q 274.61 56.77 275.65 56.3 Q 276.69 55.82 277.43 54.93 Q 278.17 54.03 278.57 52.74 Q 278.96 51.44 278.96 49.8 Z M 288.96 45.2 Q 290.17 45.2 291.19 45.6 Q 292.22 45.99 292.97 46.76 Q 293.72 47.53 294.15 48.63 Q 294.57 49.74 294.57 51.18 Q 294.57 51.74 294.45 51.92 Q 294.32 52.11 293.99 52.11 L 285.05 52.11 Q 285.08 53.36 285.4 54.3 Q 285.71 55.24 286.26 55.85 Q 286.82 56.47 287.58 56.78 Q 288.35 57.08 289.29 57.08 Q 290.17 57.08 290.81 56.88 Q 291.45 56.69 291.91 56.44 Q 292.37 56.19 292.68 56 Q 293 55.8 293.23 55.8 Q 293.38 55.8 293.49 55.86 Q 293.6 55.92 293.68 56.03 L 294.36 56.9 Q 293.91 57.44 293.3 57.83 Q 292.7 58.22 292 58.47 Q 291.3 58.72 290.56 58.85 Q 289.81 58.97 289.09 58.97 Q 287.69 58.97 286.52 58.5 Q 285.34 58.04 284.49 57.13 Q 283.63 56.22 283.15 54.89 Q 282.67 53.56 282.67 51.82 Q 282.67 50.42 283.11 49.21 Q 283.54 48 284.35 47.11 Q 285.16 46.21 286.33 45.71 Q 287.5 45.2 288.96 45.2 Z M 289 46.95 Q 287.32 46.95 286.35 47.94 Q 285.37 48.92 285.12 50.63 L 292.41 50.63 Q 292.41 49.82 292.18 49.15 Q 291.94 48.47 291.51 47.98 Q 291.07 47.5 290.43 47.23 Q 289.8 46.95 289 46.95 Z M 296.34 58.78 L 296.34 45.41 L 297.78 45.41 Q 298.03 45.41 298.2 45.52 Q 298.36 45.64 298.39 45.9 L 298.6 47.32 Q 299.46 46.36 300.52 45.78 Q 301.59 45.2 302.98 45.2 Q 304.08 45.2 304.91 45.56 Q 305.73 45.93 306.29 46.59 Q 306.85 47.25 307.14 48.19 Q 307.43 49.13 307.43 50.26 L 307.43 58.78 L 305.02 58.78 L 305.02 50.26 Q 305.02 48.77 304.34 47.94 Q 303.67 47.1 302.29 47.1 Q 301.26 47.1 300.37 47.59 Q 299.48 48.07 298.75 48.93 L 298.75 58.78 Z M 310.53 58.78 Z M 313.44 45.41 L 313.44 58.78 L 311.04 58.78 L 311.04 45.41 Z M 313.91 41.22 Q 313.91 41.57 313.77 41.87 Q 313.63 42.18 313.4 42.41 Q 313.16 42.63 312.85 42.77 Q 312.54 42.9 312.2 42.9 Q 311.86 42.9 311.56 42.77 Q 311.26 42.63 311.03 42.41 Q 310.8 42.18 310.67 41.87 Q 310.53 41.57 310.53 41.22 Q 310.53 40.87 310.67 40.56 Q 310.8 40.25 311.03 40.02 Q 311.26 39.79 311.56 39.65 Q 311.86 39.51 312.2 39.51 Q 312.54 39.51 312.85 39.65 Q 313.16 39.79 313.4 40.02 Q 313.63 40.25 313.77 40.56 Q 313.91 40.87 313.91 41.22 Z M 318.97 51.91 L 315 45.41 L 317.29 45.41 Q 317.57 45.41 317.7 45.5 Q 317.83 45.6 317.93 45.76 L 320.72 50.62 Q 320.78 50.47 320.84 50.32 Q 320.9 50.18 321.01 50.03 L 323.35 45.82 Q 323.47 45.63 323.61 45.52 Q 323.75 45.41 323.94 45.41 L 326.14 45.41 L 322.15 51.79 L 326.32 58.78 L 324 58.78 Q 323.73 58.78 323.56 58.62 Q 323.39 58.46 323.28 58.29 L 320.45 53.23 Q 320.34 53.54 320.2 53.76 L 317.65 58.29 Q 317.54 58.48 317.38 58.63 Q 317.22 58.78 316.96 58.78 L 314.82 58.78 Z" transform="matrix(5.478787, 0, 0, 5.478787, -1198.407593, -111.76313)" style="fill: rgb(24, 22, 22);"/>
  <path transform="matrix(5.478787, 0, 0, 5.478787, -1198.407593, -111.76313)" style="fill: rgb(24, 22, 22);"/>
</svg>